<mxfile host="app.diagrams.net" agent="Mozilla/5.0 (Macintosh; Intel Mac OS X 10.15; rv:139.0) Gecko/20100101 Firefox/139.0" version="27.1.6">
  <diagram name="Page-1" id="IXO4GrHjwEJ1mxh2J0J6">
    <mxGraphModel dx="2305" dy="1100" grid="1" gridSize="10" guides="1" tooltips="1" connect="1" arrows="1" fold="1" page="1" pageScale="1" pageWidth="1600" pageHeight="1200" math="0" shadow="0">
      <root>
        <mxCell id="0" />
        <mxCell id="1" parent="0" />
        <mxCell id="qsCKb5k_obWYecwogZER-78" value="" style="rounded=0;whiteSpace=wrap;html=1;" parent="1" vertex="1">
          <mxGeometry x="440" y="800" width="890" height="70" as="geometry" />
        </mxCell>
        <mxCell id="Y8cQL-sQh9ueQanMBTaT-46" value="" style="rounded=0;whiteSpace=wrap;html=1;" parent="1" vertex="1">
          <mxGeometry x="1020" y="547.51" width="310" height="230.49" as="geometry" />
        </mxCell>
        <mxCell id="Y8cQL-sQh9ueQanMBTaT-21" value="" style="rounded=0;whiteSpace=wrap;html=1;" parent="1" vertex="1">
          <mxGeometry x="440" y="540" width="210" height="240" as="geometry" />
        </mxCell>
        <mxCell id="Y8cQL-sQh9ueQanMBTaT-3" value="" style="shape=actor;whiteSpace=wrap;html=1;" parent="1" vertex="1">
          <mxGeometry x="110" y="485.15000000000003" width="40" height="60" as="geometry" />
        </mxCell>
        <mxCell id="Y8cQL-sQh9ueQanMBTaT-15" style="edgeStyle=orthogonalEdgeStyle;rounded=0;orthogonalLoop=1;jettySize=auto;html=1;" parent="1" source="Y8cQL-sQh9ueQanMBTaT-8" target="Y8cQL-sQh9ueQanMBTaT-14" edge="1">
          <mxGeometry relative="1" as="geometry" />
        </mxCell>
        <mxCell id="Y8cQL-sQh9ueQanMBTaT-8" value="" style="html=1;verticalLabelPosition=bottom;align=center;labelBackgroundColor=#ffffff;verticalAlign=top;strokeWidth=2;strokeColor=#0080F0;shadow=0;dashed=0;shape=mxgraph.ios7.icons.cloud;" parent="1" vertex="1">
          <mxGeometry x="200" y="495.24" width="45" height="30" as="geometry" />
        </mxCell>
        <mxCell id="Y8cQL-sQh9ueQanMBTaT-9" style="edgeStyle=orthogonalEdgeStyle;rounded=0;orthogonalLoop=1;jettySize=auto;html=1;exitX=0.9;exitY=0.5;exitDx=0;exitDy=0;exitPerimeter=0;entryX=0.022;entryY=0.7;entryDx=0;entryDy=0;entryPerimeter=0;" parent="1" source="Y8cQL-sQh9ueQanMBTaT-3" target="Y8cQL-sQh9ueQanMBTaT-8" edge="1">
          <mxGeometry relative="1" as="geometry" />
        </mxCell>
        <mxCell id="Y8cQL-sQh9ueQanMBTaT-11" value="" style="image;aspect=fixed;html=1;points=[];align=center;fontSize=12;image=img/lib/azure2/general/Browser.svg;" parent="1" vertex="1">
          <mxGeometry x="130" y="535.1500000000001" width="50" height="40" as="geometry" />
        </mxCell>
        <mxCell id="Y8cQL-sQh9ueQanMBTaT-12" value="External user" style="text;html=1;align=center;verticalAlign=middle;whiteSpace=wrap;rounded=0;" parent="1" vertex="1">
          <mxGeometry x="89.99999999999999" y="445.15000000000003" width="60" height="30" as="geometry" />
        </mxCell>
        <mxCell id="Y8cQL-sQh9ueQanMBTaT-24" style="edgeStyle=orthogonalEdgeStyle;rounded=0;orthogonalLoop=1;jettySize=auto;html=1;entryX=0.157;entryY=-0.007;entryDx=0;entryDy=0;exitX=0.517;exitY=0.991;exitDx=0;exitDy=0;exitPerimeter=0;entryPerimeter=0;" parent="1" source="Y8cQL-sQh9ueQanMBTaT-17" target="Y8cQL-sQh9ueQanMBTaT-21" edge="1">
          <mxGeometry relative="1" as="geometry">
            <mxPoint x="520" y="450" as="sourcePoint" />
          </mxGeometry>
        </mxCell>
        <mxCell id="Y8cQL-sQh9ueQanMBTaT-17" value="" style="shape=mxgraph.networks2.icon;aspect=fixed;fillColor=#EDEDED;strokeColor=#000000;gradientColor=#5B6163;network2IconShadow=1;network2bgFillColor=none;network2Icon=mxgraph.networks2.lan;network2IconYOffset=0.0558;network2IconW=1.0834;network2IconH=0.7564;" parent="1" vertex="1">
          <mxGeometry x="400.88" y="430.76000000000005" width="54.169999999999995" height="37.82" as="geometry" />
        </mxCell>
        <mxCell id="Y8cQL-sQh9ueQanMBTaT-18" value="Load balancer DNS" style="text;html=1;align=center;verticalAlign=middle;whiteSpace=wrap;rounded=0;fontColor=light-dark(#000000,#FFFF66);" parent="1" vertex="1">
          <mxGeometry x="382.66" y="368.58" width="84.69" height="30" as="geometry" />
        </mxCell>
        <mxCell id="Y8cQL-sQh9ueQanMBTaT-19" style="edgeStyle=orthogonalEdgeStyle;rounded=0;orthogonalLoop=1;jettySize=auto;html=1;entryX=-0.018;entryY=0.526;entryDx=0;entryDy=0;entryPerimeter=0;" parent="1" source="Y8cQL-sQh9ueQanMBTaT-14" target="Y8cQL-sQh9ueQanMBTaT-17" edge="1">
          <mxGeometry relative="1" as="geometry">
            <Array as="points">
              <mxPoint x="380" y="562" />
              <mxPoint x="380" y="495" />
              <mxPoint x="381" y="451" />
            </Array>
          </mxGeometry>
        </mxCell>
        <mxCell id="Y8cQL-sQh9ueQanMBTaT-25" value="&lt;div&gt;Front end&lt;/div&gt;&lt;div&gt;IIS&lt;/div&gt;" style="text;html=1;align=center;verticalAlign=middle;whiteSpace=wrap;rounded=0;fontColor=light-dark(#000000,#FFFF66);fontStyle=1;fontSize=14;" parent="1" vertex="1">
          <mxGeometry x="504.65" y="499.52" width="90" height="30" as="geometry" />
        </mxCell>
        <mxCell id="Y8cQL-sQh9ueQanMBTaT-29" value="" style="rounded=0;whiteSpace=wrap;html=1;" parent="1" vertex="1">
          <mxGeometry x="730" y="280" width="220" height="498" as="geometry" />
        </mxCell>
        <mxCell id="Y8cQL-sQh9ueQanMBTaT-30" value="NUTANIX" style="text;html=1;align=center;verticalAlign=middle;whiteSpace=wrap;rounded=0;fontSize=18;" parent="1" vertex="1">
          <mxGeometry x="802.5" y="820" width="170" height="30" as="geometry" />
        </mxCell>
        <mxCell id="Y8cQL-sQh9ueQanMBTaT-45" value="" style="image;aspect=fixed;perimeter=ellipsePerimeter;html=1;align=center;shadow=0;dashed=0;spacingTop=3;image=img/lib/active_directory/database_server.svg;" parent="1" vertex="1">
          <mxGeometry x="1062.5" y="565.26" width="41" height="50" as="geometry" />
        </mxCell>
        <mxCell id="Y8cQL-sQh9ueQanMBTaT-47" value="" style="image;aspect=fixed;perimeter=ellipsePerimeter;html=1;align=center;shadow=0;dashed=0;spacingTop=3;image=img/lib/active_directory/database_server.svg;" parent="1" vertex="1">
          <mxGeometry x="1062.5" y="661.24" width="41" height="50" as="geometry" />
        </mxCell>
        <mxCell id="Y8cQL-sQh9ueQanMBTaT-48" value="&lt;div&gt;Base de dados&lt;/div&gt;&lt;div&gt;&lt;font style=&quot;font-size: 13px; font-weight: normal;&quot;&gt;&lt;i&gt;MS SQL&lt;/i&gt;&lt;/font&gt;&lt;/div&gt;" style="text;html=1;align=center;verticalAlign=middle;whiteSpace=wrap;rounded=0;fontColor=light-dark(#000000,#FFFF66);fontStyle=1;fontSize=14;" parent="1" vertex="1">
          <mxGeometry x="1097.5" y="507.51" width="140" height="30" as="geometry" />
        </mxCell>
        <mxCell id="Y8cQL-sQh9ueQanMBTaT-49" value="JBG15DB02" style="text;html=1;align=center;verticalAlign=middle;whiteSpace=wrap;rounded=0;" parent="1" vertex="1">
          <mxGeometry x="1040" y="620.26" width="75" height="30" as="geometry" />
        </mxCell>
        <mxCell id="Y8cQL-sQh9ueQanMBTaT-50" value="JBG15DB03" style="text;html=1;align=center;verticalAlign=middle;whiteSpace=wrap;rounded=0;" parent="1" vertex="1">
          <mxGeometry x="1040" y="718.75" width="75" height="30" as="geometry" />
        </mxCell>
        <mxCell id="Y8cQL-sQh9ueQanMBTaT-52" value="" style="endArrow=none;dashed=1;html=1;dashPattern=1 3;strokeWidth=2;rounded=0;" parent="1" source="Y8cQL-sQh9ueQanMBTaT-53" edge="1">
          <mxGeometry width="50" height="50" relative="1" as="geometry">
            <mxPoint x="1370" y="880" as="sourcePoint" />
            <mxPoint x="1370" y="160" as="targetPoint" />
          </mxGeometry>
        </mxCell>
        <mxCell id="Y8cQL-sQh9ueQanMBTaT-64" style="edgeStyle=orthogonalEdgeStyle;rounded=0;orthogonalLoop=1;jettySize=auto;html=1;exitX=1;exitY=0.5;exitDx=0;exitDy=0;entryX=0;entryY=0.5;entryDx=0;entryDy=0;" parent="1" source="Y8cQL-sQh9ueQanMBTaT-53" target="Y8cQL-sQh9ueQanMBTaT-61" edge="1">
          <mxGeometry relative="1" as="geometry" />
        </mxCell>
        <mxCell id="Y8cQL-sQh9ueQanMBTaT-60" style="edgeStyle=orthogonalEdgeStyle;rounded=0;orthogonalLoop=1;jettySize=auto;html=1;exitX=1;exitY=0.5;exitDx=0;exitDy=0;exitPerimeter=0;" parent="1" source="Y8cQL-sQh9ueQanMBTaT-55" target="Y8cQL-sQh9ueQanMBTaT-53" edge="1">
          <mxGeometry relative="1" as="geometry">
            <mxPoint x="1235" y="274.9999999999998" as="targetPoint" />
          </mxGeometry>
        </mxCell>
        <mxCell id="Y8cQL-sQh9ueQanMBTaT-55" value="" style="outlineConnect=0;dashed=0;verticalLabelPosition=bottom;verticalAlign=top;align=center;html=1;shape=mxgraph.aws3.vpn_gateway;fillColor=light-dark(#F58534,#00FFFF);gradientColor=none;" parent="1" vertex="1">
          <mxGeometry x="1142.5" y="312.5" width="50" height="46" as="geometry" />
        </mxCell>
        <mxCell id="Y8cQL-sQh9ueQanMBTaT-58" value="API Gateway" style="text;html=1;align=center;verticalAlign=middle;whiteSpace=wrap;rounded=0;" parent="1" vertex="1">
          <mxGeometry x="1140" y="269.5" width="60" height="30" as="geometry" />
        </mxCell>
        <mxCell id="Y8cQL-sQh9ueQanMBTaT-61" value="" style="editableCssRules=.*;html=1;shape=image;verticalLabelPosition=bottom;labelBackgroundColor=#ffffff;verticalAlign=top;aspect=fixed;imageAspect=0;image=data:image/svg+xml,PHN2ZyB4bWxucz0iaHR0cDovL3d3dy53My5vcmcvMjAwMC9zdmciIHhtbG5zOnY9Imh0dHBzOi8vdmVjdGEuaW8vbmFubyIgd2lkdGg9IjE5Ljk5OTk5ODA5MjY1MTM2NyIgaGVpZ2h0PSIyMCIgdmlld0JveD0iMCAtMi44NDIxNzA1NjE4NzU1NzQ1ZS0xNSAxOS45OTk5OTgwOTI2NTEzNjcgMjAiPiYjeGE7CTxzdHlsZSB0eXBlPSJ0ZXh0L2NzcyI+JiN4YTsJLnN0MHtmaWxsOiM0Mjg1ZjQ7fSYjeGE7CS5zdDF7ZmlsbDojNjY5ZGY2O30mI3hhOwk8L3N0eWxlPiYjeGE7CTxwYXRoIGNsYXNzPSJzdDEiIGQ9Ik0xNS40OSAxMC40djYuN2EuNC40IDAgMCAxLS40LjRIMi45YS40LjQgMCAwIDEtLjQtLjRWNC45YS40LjQgMCAwIDEgLjQtLjRoNi43YS40LjQgMCAwIDAgLjQtLjRWMi40YS40LjQgMCAwIDAtLjQtLjRILjRhLjQuNCAwIDAgMC0uNC40djE3LjJhLjQuNCAwIDAgMCAuNC40aDE3LjJhLjQuNCAwIDAgMCAuNC0uNHYtOS4yYS40LjQgMCAwIDAtLjQtLjRoLTEuNzFhLjQuNCAwIDAgMC0uNC40eiIvPiYjeGE7CTxwYXRoIGNsYXNzPSJzdDAiIGQ9Ik0xMiAuNHY3LjJhLjQuNCAwIDAgMCAuNC40aDcuMmEuNC40IDAgMCAwIC40LS40Vi40YS40LjQgMCAwIDAtLjQtLjRoLTcuMmEuNC40IDAgMCAwLS40LjR6bTUuNiA0LjFoLTEuNzFhLjQuNCAwIDAgMS0uNC0uNFYyLjRhLjQuNCAwIDAgMSAuNC0uNGgxLjcxYS40LjQgMCAwIDEgLjQuNHYxLjdhLjQuNCAwIDAgMS0uNC40eiIvPiYjeGE7PC9zdmc+;" parent="1" vertex="1">
          <mxGeometry x="1470" y="182.18" width="40" height="40" as="geometry" />
        </mxCell>
        <mxCell id="Y8cQL-sQh9ueQanMBTaT-62" value="&lt;div&gt;External SaaS service&lt;/div&gt;&lt;div&gt;&lt;br&gt;&lt;/div&gt;" style="text;html=1;align=center;verticalAlign=middle;whiteSpace=wrap;rounded=0;" parent="1" vertex="1">
          <mxGeometry x="1460" y="248.18" width="60" height="30" as="geometry" />
        </mxCell>
        <mxCell id="Y8cQL-sQh9ueQanMBTaT-63" style="edgeStyle=orthogonalEdgeStyle;rounded=0;orthogonalLoop=1;jettySize=auto;html=1;exitX=0.5;exitY=1;exitDx=0;exitDy=0;" parent="1" source="Y8cQL-sQh9ueQanMBTaT-62" target="Y8cQL-sQh9ueQanMBTaT-62" edge="1">
          <mxGeometry relative="1" as="geometry" />
        </mxCell>
        <mxCell id="qsCKb5k_obWYecwogZER-1" value="" style="sketch=0;pointerEvents=1;shadow=0;dashed=0;html=1;strokeColor=none;fillColor=#005F4B;labelPosition=center;verticalLabelPosition=bottom;verticalAlign=top;align=center;outlineConnect=0;shape=mxgraph.veeam2.server_nutanix;" parent="1" vertex="1">
          <mxGeometry x="455.04999999999995" y="809" width="40" height="52" as="geometry" />
        </mxCell>
        <mxCell id="qsCKb5k_obWYecwogZER-3" value="" style="endArrow=none;dashed=1;html=1;dashPattern=1 3;strokeWidth=2;rounded=0;" parent="1" edge="1">
          <mxGeometry width="50" height="50" relative="1" as="geometry">
            <mxPoint x="1370" y="160" as="sourcePoint" />
            <mxPoint x="330" y="160" as="targetPoint" />
          </mxGeometry>
        </mxCell>
        <mxCell id="qsCKb5k_obWYecwogZER-4" value="" style="endArrow=none;dashed=1;html=1;dashPattern=1 3;strokeWidth=2;rounded=0;" parent="1" edge="1">
          <mxGeometry width="50" height="50" relative="1" as="geometry">
            <mxPoint x="1370" y="880" as="sourcePoint" />
            <mxPoint x="330" y="880" as="targetPoint" />
          </mxGeometry>
        </mxCell>
        <mxCell id="qsCKb5k_obWYecwogZER-5" value="" style="endArrow=none;dashed=1;html=1;dashPattern=1 3;strokeWidth=2;rounded=0;" parent="1" edge="1">
          <mxGeometry width="50" height="50" relative="1" as="geometry">
            <mxPoint x="330" y="880" as="sourcePoint" />
            <mxPoint x="330" y="160" as="targetPoint" />
          </mxGeometry>
        </mxCell>
        <mxCell id="Y8cQL-sQh9ueQanMBTaT-14" value="" style="image;html=1;image=img/lib/clip_art/networking/Firewall_02_128x128.png" parent="1" vertex="1">
          <mxGeometry x="290" y="521.84" width="80" height="80" as="geometry" />
        </mxCell>
        <mxCell id="qsCKb5k_obWYecwogZER-6" value="" style="shape=actor;whiteSpace=wrap;html=1;" parent="1" vertex="1">
          <mxGeometry x="380" y="219.5" width="40" height="60" as="geometry" />
        </mxCell>
        <mxCell id="qsCKb5k_obWYecwogZER-7" value="" style="image;aspect=fixed;html=1;points=[];align=center;fontSize=12;image=img/lib/azure2/general/Browser.svg;" parent="1" vertex="1">
          <mxGeometry x="400" y="269.5" width="50" height="40" as="geometry" />
        </mxCell>
        <mxCell id="qsCKb5k_obWYecwogZER-8" value="Internal User" style="text;html=1;align=center;verticalAlign=middle;whiteSpace=wrap;rounded=0;" parent="1" vertex="1">
          <mxGeometry x="370" y="175.49" width="60" height="30" as="geometry" />
        </mxCell>
        <mxCell id="qsCKb5k_obWYecwogZER-9" value="Internet" style="text;html=1;align=center;verticalAlign=middle;whiteSpace=wrap;rounded=0;" parent="1" vertex="1">
          <mxGeometry x="192.5" y="525.24" width="60" height="30" as="geometry" />
        </mxCell>
        <mxCell id="qsCKb5k_obWYecwogZER-10" value="web browser" style="text;html=1;align=center;verticalAlign=middle;whiteSpace=wrap;rounded=0;" parent="1" vertex="1">
          <mxGeometry x="125" y="585.26" width="60" height="30" as="geometry" />
        </mxCell>
        <mxCell id="qsCKb5k_obWYecwogZER-12" value="DATA CENTER: LOT" style="text;html=1;align=center;verticalAlign=middle;whiteSpace=wrap;rounded=0;fontSize=18;" parent="1" vertex="1">
          <mxGeometry x="330" y="119.49" width="190" height="30" as="geometry" />
        </mxCell>
        <mxCell id="qsCKb5k_obWYecwogZER-15" style="edgeStyle=orthogonalEdgeStyle;rounded=0;orthogonalLoop=1;jettySize=auto;html=1;exitX=0.964;exitY=0.647;exitDx=0;exitDy=0;entryX=0.017;entryY=0.142;entryDx=0;entryDy=0;exitPerimeter=0;entryPerimeter=0;" parent="1" source="qsCKb5k_obWYecwogZER-7" target="Y8cQL-sQh9ueQanMBTaT-29" edge="1">
          <mxGeometry relative="1" as="geometry">
            <mxPoint x="375" y="248.5" as="sourcePoint" />
            <mxPoint x="465.22000000000025" y="263.05999999999995" as="targetPoint" />
          </mxGeometry>
        </mxCell>
        <mxCell id="qsCKb5k_obWYecwogZER-16" value="UWP" style="text;html=1;align=center;verticalAlign=middle;whiteSpace=wrap;rounded=0;" parent="1" vertex="1">
          <mxGeometry x="395.05" y="309.5" width="60" height="30" as="geometry" />
        </mxCell>
        <mxCell id="qsCKb5k_obWYecwogZER-17" value="" style="shape=mxgraph.networks2.icon;aspect=fixed;fillColor=#EDEDED;strokeColor=#000000;gradientColor=#5B6163;network2IconShadow=1;network2bgFillColor=none;network2Icon=mxgraph.networks2.desktop_pc;network2IconXOffset=-0.0034;network2IconYOffset=0.00035;network2IconW=0.453;network2IconH=0.9995;" parent="1" vertex="1">
          <mxGeometry x="776.17" y="300.28999999999996" width="22.650000000000002" height="49.975" as="geometry" />
        </mxCell>
        <mxCell id="qsCKb5k_obWYecwogZER-18" value="JBG15AP07" style="text;html=1;align=center;verticalAlign=middle;whiteSpace=wrap;rounded=0;" parent="1" vertex="1">
          <mxGeometry x="750" y="350.27" width="75" height="30" as="geometry" />
        </mxCell>
        <mxCell id="qsCKb5k_obWYecwogZER-19" value="" style="shape=mxgraph.networks2.icon;aspect=fixed;fillColor=#EDEDED;strokeColor=#000000;gradientColor=#5B6163;network2IconShadow=1;network2bgFillColor=none;network2Icon=mxgraph.networks2.desktop_pc;network2IconXOffset=-0.0034;network2IconYOffset=0.00035;network2IconW=0.453;network2IconH=0.9995;" parent="1" vertex="1">
          <mxGeometry x="776.17" y="393.59" width="22.650000000000002" height="49.975" as="geometry" />
        </mxCell>
        <mxCell id="qsCKb5k_obWYecwogZER-20" value="JBG15AP08" style="text;html=1;align=center;verticalAlign=middle;whiteSpace=wrap;rounded=0;" parent="1" vertex="1">
          <mxGeometry x="750" y="443.57" width="75" height="30" as="geometry" />
        </mxCell>
        <mxCell id="qsCKb5k_obWYecwogZER-26" value="" style="shape=mxgraph.networks2.icon;aspect=fixed;fillColor=#EDEDED;strokeColor=#000000;gradientColor=#5B6163;network2IconShadow=1;network2bgFillColor=none;network2Icon=mxgraph.networks2.desktop_pc;network2IconXOffset=-0.0034;network2IconYOffset=0.00035;network2IconW=0.453;network2IconH=0.9995;" parent="1" vertex="1">
          <mxGeometry x="776.17" y="489.53" width="22.650000000000002" height="49.975" as="geometry" />
        </mxCell>
        <mxCell id="qsCKb5k_obWYecwogZER-27" value="JBG15AP09" style="text;html=1;align=center;verticalAlign=middle;whiteSpace=wrap;rounded=0;" parent="1" vertex="1">
          <mxGeometry x="750" y="539.51" width="75" height="30" as="geometry" />
        </mxCell>
        <mxCell id="qsCKb5k_obWYecwogZER-28" value="" style="shape=mxgraph.networks2.icon;aspect=fixed;fillColor=#EDEDED;strokeColor=#000000;gradientColor=#5B6163;network2IconShadow=1;network2bgFillColor=none;network2Icon=mxgraph.networks2.desktop_pc;network2IconXOffset=-0.0034;network2IconYOffset=0.00035;network2IconW=0.453;network2IconH=0.9995;" parent="1" vertex="1">
          <mxGeometry x="776.17" y="582.8299999999999" width="22.650000000000002" height="49.975" as="geometry" />
        </mxCell>
        <mxCell id="qsCKb5k_obWYecwogZER-29" value="JBG15AP10" style="text;html=1;align=center;verticalAlign=middle;whiteSpace=wrap;rounded=0;" parent="1" vertex="1">
          <mxGeometry x="750" y="632.81" width="75" height="30" as="geometry" />
        </mxCell>
        <mxCell id="qsCKb5k_obWYecwogZER-30" value="" style="shape=mxgraph.networks2.icon;aspect=fixed;fillColor=#EDEDED;strokeColor=#000000;gradientColor=#5B6163;network2IconShadow=1;network2bgFillColor=none;network2Icon=mxgraph.networks2.desktop_pc;network2IconXOffset=-0.0034;network2IconYOffset=0.00035;network2IconW=0.453;network2IconH=0.9995;" parent="1" vertex="1">
          <mxGeometry x="776.17" y="680.02" width="22.650000000000002" height="49.975" as="geometry" />
        </mxCell>
        <mxCell id="qsCKb5k_obWYecwogZER-31" value="JBG15AP11" style="text;html=1;align=center;verticalAlign=middle;whiteSpace=wrap;rounded=0;" parent="1" vertex="1">
          <mxGeometry x="750" y="730" width="75" height="30" as="geometry" />
        </mxCell>
        <mxCell id="qsCKb5k_obWYecwogZER-42" value="" style="shape=mxgraph.networks2.icon;aspect=fixed;fillColor=#EDEDED;strokeColor=#000000;gradientColor=#5B6163;network2IconShadow=1;network2bgFillColor=none;network2Icon=mxgraph.networks2.desktop_pc;network2IconXOffset=-0.0034;network2IconYOffset=0.00035;network2IconW=0.453;network2IconH=0.9995;" parent="1" vertex="1">
          <mxGeometry x="876.17" y="300.28999999999996" width="22.650000000000002" height="49.975" as="geometry" />
        </mxCell>
        <mxCell id="qsCKb5k_obWYecwogZER-43" value="JBG15AP12" style="text;html=1;align=center;verticalAlign=middle;whiteSpace=wrap;rounded=0;" parent="1" vertex="1">
          <mxGeometry x="850" y="300" width="75" height="127.98" as="geometry" />
        </mxCell>
        <mxCell id="qsCKb5k_obWYecwogZER-44" value="" style="shape=mxgraph.networks2.icon;aspect=fixed;fillColor=#EDEDED;strokeColor=#000000;gradientColor=#5B6163;network2IconShadow=1;network2bgFillColor=none;network2Icon=mxgraph.networks2.desktop_pc;network2IconXOffset=-0.0034;network2IconYOffset=0.00035;network2IconW=0.453;network2IconH=0.9995;" parent="1" vertex="1">
          <mxGeometry x="876.17" y="393.5899999999999" width="22.650000000000002" height="49.975" as="geometry" />
        </mxCell>
        <mxCell id="qsCKb5k_obWYecwogZER-45" value="JBG15AP13" style="text;html=1;align=center;verticalAlign=middle;whiteSpace=wrap;rounded=0;" parent="1" vertex="1">
          <mxGeometry x="850" y="443.56999999999994" width="75" height="30" as="geometry" />
        </mxCell>
        <mxCell id="qsCKb5k_obWYecwogZER-46" value="" style="shape=mxgraph.networks2.icon;aspect=fixed;fillColor=#EDEDED;strokeColor=#000000;gradientColor=#5B6163;network2IconShadow=1;network2bgFillColor=none;network2Icon=mxgraph.networks2.desktop_pc;network2IconXOffset=-0.0034;network2IconYOffset=0.00035;network2IconW=0.453;network2IconH=0.9995;" parent="1" vertex="1">
          <mxGeometry x="876.17" y="489.53" width="22.650000000000002" height="49.975" as="geometry" />
        </mxCell>
        <mxCell id="qsCKb5k_obWYecwogZER-47" value="JBG15AP14" style="text;html=1;align=center;verticalAlign=middle;whiteSpace=wrap;rounded=0;" parent="1" vertex="1">
          <mxGeometry x="850" y="539.51" width="75" height="30" as="geometry" />
        </mxCell>
        <mxCell id="qsCKb5k_obWYecwogZER-48" value="" style="shape=mxgraph.networks2.icon;aspect=fixed;fillColor=#EDEDED;strokeColor=#000000;gradientColor=#5B6163;network2IconShadow=1;network2bgFillColor=none;network2Icon=mxgraph.networks2.desktop_pc;network2IconXOffset=-0.0034;network2IconYOffset=0.00035;network2IconW=0.453;network2IconH=0.9995;" parent="1" vertex="1">
          <mxGeometry x="876.17" y="582.8299999999999" width="22.650000000000002" height="49.975" as="geometry" />
        </mxCell>
        <mxCell id="qsCKb5k_obWYecwogZER-49" value="JBG15AP18" style="text;html=1;align=center;verticalAlign=middle;whiteSpace=wrap;rounded=0;" parent="1" vertex="1">
          <mxGeometry x="850" y="632.81" width="75" height="30" as="geometry" />
        </mxCell>
        <mxCell id="qsCKb5k_obWYecwogZER-50" value="" style="shape=mxgraph.networks2.icon;aspect=fixed;fillColor=#EDEDED;strokeColor=#000000;gradientColor=#5B6163;network2IconShadow=1;network2bgFillColor=none;network2Icon=mxgraph.networks2.desktop_pc;network2IconXOffset=-0.0034;network2IconYOffset=0.00035;network2IconW=0.453;network2IconH=0.9995;" parent="1" vertex="1">
          <mxGeometry x="876.17" y="680.02" width="22.650000000000002" height="49.975" as="geometry" />
        </mxCell>
        <mxCell id="qsCKb5k_obWYecwogZER-51" value="JBG15AP19" style="text;html=1;align=center;verticalAlign=middle;whiteSpace=wrap;rounded=0;" parent="1" vertex="1">
          <mxGeometry x="850" y="730" width="75" height="30" as="geometry" />
        </mxCell>
        <mxCell id="qsCKb5k_obWYecwogZER-66" value="" style="image;aspect=fixed;perimeter=ellipsePerimeter;html=1;align=center;shadow=0;dashed=0;spacingTop=3;image=img/lib/active_directory/database_server.svg;" parent="1" vertex="1">
          <mxGeometry x="1152.5" y="565.26" width="41" height="50" as="geometry" />
        </mxCell>
        <mxCell id="qsCKb5k_obWYecwogZER-67" value="" style="image;aspect=fixed;perimeter=ellipsePerimeter;html=1;align=center;shadow=0;dashed=0;spacingTop=3;image=img/lib/active_directory/database_server.svg;" parent="1" vertex="1">
          <mxGeometry x="1152.5" y="661.24" width="41" height="50" as="geometry" />
        </mxCell>
        <mxCell id="qsCKb5k_obWYecwogZER-68" value="JBG15DB04" style="text;html=1;align=center;verticalAlign=middle;whiteSpace=wrap;rounded=0;" parent="1" vertex="1">
          <mxGeometry x="1130" y="620.26" width="75" height="30" as="geometry" />
        </mxCell>
        <mxCell id="qsCKb5k_obWYecwogZER-69" value="JBG15DB06" style="text;html=1;align=center;verticalAlign=middle;whiteSpace=wrap;rounded=0;" parent="1" vertex="1">
          <mxGeometry x="1130" y="718.75" width="75" height="30" as="geometry" />
        </mxCell>
        <mxCell id="qsCKb5k_obWYecwogZER-72" value="" style="image;aspect=fixed;perimeter=ellipsePerimeter;html=1;align=center;shadow=0;dashed=0;spacingTop=3;image=img/lib/active_directory/database_server.svg;" parent="1" vertex="1">
          <mxGeometry x="1242.5" y="565.26" width="41" height="50" as="geometry" />
        </mxCell>
        <mxCell id="qsCKb5k_obWYecwogZER-73" value="JBG15DB13" style="text;html=1;align=center;verticalAlign=middle;whiteSpace=wrap;rounded=0;" parent="1" vertex="1">
          <mxGeometry x="1220" y="620.26" width="75" height="30" as="geometry" />
        </mxCell>
        <mxCell id="qsCKb5k_obWYecwogZER-74" value="" style="image;aspect=fixed;perimeter=ellipsePerimeter;html=1;align=center;shadow=0;dashed=0;spacingTop=3;image=img/lib/active_directory/database_server.svg;" parent="1" vertex="1">
          <mxGeometry x="1242.5" y="661.59" width="41" height="50" as="geometry" />
        </mxCell>
        <mxCell id="qsCKb5k_obWYecwogZER-75" value="JBG15DB14" style="text;html=1;align=center;verticalAlign=middle;whiteSpace=wrap;rounded=0;" parent="1" vertex="1">
          <mxGeometry x="1220" y="716.59" width="75" height="30" as="geometry" />
        </mxCell>
        <mxCell id="qsCKb5k_obWYecwogZER-76" style="edgeStyle=orthogonalEdgeStyle;rounded=0;orthogonalLoop=1;jettySize=auto;html=1;entryX=0;entryY=0.5;entryDx=0;entryDy=0;" parent="1" target="Y8cQL-sQh9ueQanMBTaT-46" edge="1">
          <mxGeometry relative="1" as="geometry">
            <mxPoint x="954" y="663" as="sourcePoint" />
            <mxPoint x="862" y="640" as="targetPoint" />
          </mxGeometry>
        </mxCell>
        <mxCell id="qsCKb5k_obWYecwogZER-77" value="TCP/IP" style="text;html=1;align=center;verticalAlign=middle;whiteSpace=wrap;rounded=0;fontColor=light-dark(#000000,#FFFF66);" parent="1" vertex="1">
          <mxGeometry x="954" y="631.24" width="60" height="30" as="geometry" />
        </mxCell>
        <mxCell id="qsCKb5k_obWYecwogZER-80" value="" style="shape=mxgraph.networks2.icon;aspect=fixed;fillColor=#EDEDED;strokeColor=#000000;gradientColor=#5B6163;network2IconShadow=1;network2bgFillColor=none;network2Icon=mxgraph.networks2.desktop_pc;network2IconXOffset=-0.0034;network2IconYOffset=0.00035;network2IconW=0.453;network2IconH=0.9995;" parent="1" vertex="1">
          <mxGeometry x="482" y="565.55" width="22.650000000000002" height="49.975" as="geometry" />
        </mxCell>
        <mxCell id="qsCKb5k_obWYecwogZER-81" value="JBG15WS05" style="text;html=1;align=center;verticalAlign=middle;whiteSpace=wrap;rounded=0;" parent="1" vertex="1">
          <mxGeometry x="455.83" y="615.53" width="75" height="30" as="geometry" />
        </mxCell>
        <mxCell id="qsCKb5k_obWYecwogZER-82" value="" style="shape=mxgraph.networks2.icon;aspect=fixed;fillColor=#EDEDED;strokeColor=#000000;gradientColor=#5B6163;network2IconShadow=1;network2bgFillColor=none;network2Icon=mxgraph.networks2.desktop_pc;network2IconXOffset=-0.0034;network2IconYOffset=0.00035;network2IconW=0.453;network2IconH=0.9995;" parent="1" vertex="1">
          <mxGeometry x="482" y="658.8499999999999" width="22.650000000000002" height="49.975" as="geometry" />
        </mxCell>
        <mxCell id="qsCKb5k_obWYecwogZER-83" value="JBG21WS02" style="text;html=1;align=center;verticalAlign=middle;whiteSpace=wrap;rounded=0;" parent="1" vertex="1">
          <mxGeometry x="455.83" y="708.8299999999999" width="75" height="30" as="geometry" />
        </mxCell>
        <mxCell id="qsCKb5k_obWYecwogZER-84" value="" style="shape=mxgraph.networks2.icon;aspect=fixed;fillColor=#EDEDED;strokeColor=#000000;gradientColor=#5B6163;network2IconShadow=1;network2bgFillColor=none;network2Icon=mxgraph.networks2.desktop_pc;network2IconXOffset=-0.0034;network2IconYOffset=0.00035;network2IconW=0.453;network2IconH=0.9995;" parent="1" vertex="1">
          <mxGeometry x="582" y="565.55" width="22.650000000000002" height="49.975" as="geometry" />
        </mxCell>
        <mxCell id="qsCKb5k_obWYecwogZER-85" value="JBG21WS13" style="text;html=1;align=center;verticalAlign=middle;whiteSpace=wrap;rounded=0;" parent="1" vertex="1">
          <mxGeometry x="555.8299999999999" y="565.26" width="75" height="127.98" as="geometry" />
        </mxCell>
        <mxCell id="qsCKb5k_obWYecwogZER-86" value="" style="shape=mxgraph.networks2.icon;aspect=fixed;fillColor=#EDEDED;strokeColor=#000000;gradientColor=#5B6163;network2IconShadow=1;network2bgFillColor=none;network2Icon=mxgraph.networks2.desktop_pc;network2IconXOffset=-0.0034;network2IconYOffset=0.00035;network2IconW=0.453;network2IconH=0.9995;" parent="1" vertex="1">
          <mxGeometry x="582" y="658.8499999999999" width="22.650000000000002" height="49.975" as="geometry" />
        </mxCell>
        <mxCell id="qsCKb5k_obWYecwogZER-87" value="JBG21WS14" style="text;html=1;align=center;verticalAlign=middle;whiteSpace=wrap;rounded=0;" parent="1" vertex="1">
          <mxGeometry x="555.8299999999999" y="708.8299999999999" width="75" height="30" as="geometry" />
        </mxCell>
        <mxCell id="qsCKb5k_obWYecwogZER-88" value="&lt;div&gt;Applications / Services&lt;/div&gt;&lt;div&gt;.NET C#&lt;/div&gt;" style="text;html=1;align=center;verticalAlign=middle;whiteSpace=wrap;rounded=0;fontColor=light-dark(#000000,#FFFF66);fontStyle=1;fontSize=14;" parent="1" vertex="1">
          <mxGeometry x="760" y="240" width="165" height="30" as="geometry" />
        </mxCell>
        <mxCell id="qsCKb5k_obWYecwogZER-89" value="JBG21DB12" style="text;html=1;align=center;verticalAlign=middle;whiteSpace=wrap;rounded=0;" parent="1" vertex="1">
          <mxGeometry x="390.47" y="398.42" width="75" height="30" as="geometry" />
        </mxCell>
        <mxCell id="qsCKb5k_obWYecwogZER-90" value="HTTPS" style="text;html=1;align=center;verticalAlign=middle;whiteSpace=wrap;rounded=0;fontColor=light-dark(#000000,#FFFF66);" parent="1" vertex="1">
          <mxGeometry x="439.9999999999999" y="469.52" width="60" height="30" as="geometry" />
        </mxCell>
        <mxCell id="qsCKb5k_obWYecwogZER-91" value="RDP" style="text;html=1;align=center;verticalAlign=middle;whiteSpace=wrap;rounded=0;fontColor=light-dark(#000000,#FFFF66);" parent="1" vertex="1">
          <mxGeometry x="515.35" y="260.49" width="60" height="30" as="geometry" />
        </mxCell>
        <mxCell id="qsCKb5k_obWYecwogZER-92" style="edgeStyle=orthogonalEdgeStyle;rounded=0;orthogonalLoop=1;jettySize=auto;html=1;exitX=1;exitY=0.5;exitDx=0;exitDy=0;entryX=0.003;entryY=0.763;entryDx=0;entryDy=0;entryPerimeter=0;" parent="1" source="Y8cQL-sQh9ueQanMBTaT-21" target="Y8cQL-sQh9ueQanMBTaT-29" edge="1">
          <mxGeometry relative="1" as="geometry">
            <mxPoint x="480" y="300" as="sourcePoint" />
            <mxPoint x="766" y="356" as="targetPoint" />
          </mxGeometry>
        </mxCell>
        <mxCell id="qsCKb5k_obWYecwogZER-93" value="???" style="text;html=1;align=center;verticalAlign=middle;whiteSpace=wrap;rounded=0;fontColor=light-dark(#000000,#FFFF66);" parent="1" vertex="1">
          <mxGeometry x="660" y="631.24" width="60" height="30" as="geometry" />
        </mxCell>
        <mxCell id="qsCKb5k_obWYecwogZER-94" value="" style="endArrow=none;dashed=1;html=1;dashPattern=1 3;strokeWidth=2;rounded=0;" parent="1" target="Y8cQL-sQh9ueQanMBTaT-53" edge="1">
          <mxGeometry width="50" height="50" relative="1" as="geometry">
            <mxPoint x="1370" y="880" as="sourcePoint" />
            <mxPoint x="1370" y="160" as="targetPoint" />
          </mxGeometry>
        </mxCell>
        <mxCell id="Y8cQL-sQh9ueQanMBTaT-53" value="" style="image;html=1;image=img/lib/clip_art/networking/Firewall_02_128x128.png" parent="1" vertex="1">
          <mxGeometry x="1330" y="235.49" width="80" height="80" as="geometry" />
        </mxCell>
        <mxCell id="qsCKb5k_obWYecwogZER-95" style="edgeStyle=orthogonalEdgeStyle;rounded=0;orthogonalLoop=1;jettySize=auto;html=1;exitX=1.003;exitY=0.112;exitDx=0;exitDy=0;entryX=0;entryY=0.5;entryDx=0;entryDy=0;exitPerimeter=0;entryPerimeter=0;" parent="1" source="Y8cQL-sQh9ueQanMBTaT-29" target="Y8cQL-sQh9ueQanMBTaT-55" edge="1">
          <mxGeometry relative="1" as="geometry">
            <mxPoint x="650" y="350" as="sourcePoint" />
            <mxPoint x="936" y="406" as="targetPoint" />
          </mxGeometry>
        </mxCell>
        <mxCell id="qsCKb5k_obWYecwogZER-96" value="REST HTTP" style="text;html=1;align=center;verticalAlign=middle;whiteSpace=wrap;rounded=0;fontColor=light-dark(#000000,#FFFF66);" parent="1" vertex="1">
          <mxGeometry x="1014" y="300.29" width="60" height="30" as="geometry" />
        </mxCell>
      </root>
    </mxGraphModel>
  </diagram>
</mxfile>
